<svg height="20" viewBox="0 0 194 20" width="194" xmlns="http://www.w3.org/2000/svg" xmlns:xlink="http://www.w3.org/1999/xlink"><linearGradient id="a" x1="50%" x2="50%" y1="0%" y2="100%"><stop offset="0" stop-color="#333"/><stop offset="1" stop-color="#333"/></linearGradient><path d="m718.74026 99.9835735c1.499032-2.0291789 2.873162-3.8909782 4.249191-5.75184 2.313952-3.1295934 4.615668-6.2666861 6.957786-9.3789895.362047-.4810994.384305-.8025266.004326-1.2805013-.884334-1.11208-1.69187-2.2737386-2.641714-3.566947h.894461c7.719645 0 15.439184-.0018748 23.158829.0016665 1.77869.000625 3.427519.313928 4.625585 1.723271 1.827426-1.5067294 4.04074-1.737957 6.348679-1.7300411 4.880557.016665 9.761325-.0156235 14.641565.0204147 1.170743.0086449 2.368913.0957199 3.503789.3390297 2.536645.5438016 3.190797 2.0942768 1.758013 4.0574204-2.853646 3.9093097-5.74126 7.7982048-8.61495 11.6955365-.828529 1.1236414-1.646509 2.2538447-2.49698 3.3640499-.160874.2099797-.450237.4813077-.683478.4839116-3.081824.0321844-6.164281.0213521-9.392105.0213521.254234-.3701726.423548-.6326472.60974-.8850187 3.069481-4.1590772 6.141495-8.3168004 9.212242-12.4752528.158765-.2149792.327762-.4253755.467327-.6502496.589169-.9492833.273117-1.6405707-.923893-1.6760881-2.89943-.0859292-5.803079-.0808255-8.704091-.0496827-.297907.0032289-.663857.3847545-.873784.6660815-3.557379 4.7630814-7.106635 9.5313706-10.621923 14.3197621-.419434.5715072-.862814.7787793-1.615284.7681549-2.83202-.039892-5.665306-.015936-8.688688-.015936.253496-.3673603.419961-.6236897.602566-.870645 3.073069-4.15689 6.148985-8.3122176 9.220998-12.4699408.228916-.3097617.457727-.6236897.640438-.9563659.34348-.6247313.073739-1.0739587-.605098-1.2940416-.380718-.1234256-.811018-.1671714-1.219375-.1696711-2.583693-.0158318-5.168126-.0355174-7.75087.0171858-.373967.0078117-.863763.3217397-1.088565.6220232-3.59525 4.8092228-7.166238 9.6333399-10.710219 14.4733931-.363734.4966186-.741499.6674357-1.384257.6608736-2.894155-.0294763-5.788943-.0129154-8.880261-.0129154zm-95.74026-.0897048c2.470772-3.3359836 4.896904-6.6117984 7.323142-9.8874046 1.275742-1.7226861 2.527366-3.4600755 3.842248-5.1581517.376588-.4863565.36199-.811185-.011636-1.2825252-.883287-1.1141149-1.694325-2.2742168-2.641823-3.561643h1.008535c9.086755.0001042 18.173616-.0178317 27.260054.0201258 1.327365.005631 2.694398.1433833 3.970563.457784 2.095032.5162844 2.632515 1.8592913 1.498628 3.5096079-.956701 1.3927479-1.967669 2.7603645-3.041683 4.08189-.973838 1.1979551-2.494574 1.6500037-3.996375 2.0791111-.33311.0952065-.681348.1477631-1.048943.2256593.569218.3513154 1.165305.6455902 1.659205 1.0425797.656912.5278593.929198 1.2505115.401552 1.9381261-1.121722 1.4613633-2.220807 2.95912-3.542248 4.2679234-1.591716 1.5762786-3.753496 2.3276075-6.105051 2.3406423-8.766339.0485942-17.533207.0275297-26.299757.0296152-.054478-.0001043-.108957-.0392088-.276411-.1033403zm13.193673-4.6006771c3.480682 0 6.736893.0152247 9.99268-.0064653 1.655609-.0107407 2.705717-.8631158 3.428532-2.1289564.417631-.731203.202257-1.2239204-.685685-1.414125-.308146-.0661128-.634063-.088637-.952047-.0894712-2.813615-.0076124-5.62723-.0139734-8.440739.0059439-.280113.0020855-.672568.1075114-.819183.2903122-.835897 1.0424753-1.612873 2.1230124-2.523558 3.3427618zm5.900044-7.9009975c3.441331 0 6.699128.0405645 9.953541-.0331607.674895-.0152247 1.470065-.3254541 1.968409-.7362084.486707-.4011606.988859-1.1495697.900953-1.6649156-.127574-.7474706-1.132935-.7137885-1.853634-.7217137-2.685512-.0289895-5.37187-.0265911-8.057593-.0057353-.269959.0021898-.637872.1454689-.789988.3342136-.708428.8782362-1.356772 1.7955769-2.121688 2.8275201zm51.610993 2.9915494c.578907.3645136 1.198151.6732449 1.70316 1.0929151.655664.5449979.824 1.2693331.309992 1.955507-.962269 1.2850772-1.903575 2.5983062-3.023169 3.7691079-1.732063 1.8113072-4.039856 2.7547051-6.687922 2.7689895-8.741835.047024-17.483987.0238769-26.226034.0251281-.0559 0-.112012-.0350333-.248269-.0804933.181993-.2719254.344189-.5384291.530735-.7903355 3.527648-4.7607809 7.048733-9.5257325 10.602002-14.2712906.363352-.4851492.377645-.8058711-.001164-1.2816364-.886253-1.1137684-1.697231-2.2756033-2.648701-3.5672492h1.09662c9.030336 0 18.060883-.0183508 27.090901.020019 1.36077.0057346 2.76156.1383609 4.070453.4558505 2.10092.509756 2.643831 1.857497 1.512167 3.5048982-.956657 1.3928882-1.969956 2.759397-3.043391 4.0819057-.973385 1.1994749-2.494551 1.6517804-3.996872 2.0830241-.350012.1006166-.714423.1614036-1.040508.2336599zm-20.980192 4.8748478c3.537283 0 6.885267.0223129 10.23251-.010218 1.512908-.0147015 2.42944-.8663454 3.113266-1.9941896.514961-.84935.276431-1.3688027-.782498-1.5374007-.28236-.0450429-.572979-.0649576-.859891-.065479-2.783899-.0056303-5.56801-.01491-8.351698.009801-.302475.0027109-.719187.1365883-.883923.3395941-.8258 1.0178437-1.585325 2.0788534-2.467766 3.2578922zm5.967358-7.8910517c3.432364 0 6.78056.0375357 10.12685-.0197063 1.221231-.0209574 2.023316-.7565533 2.572473-1.710065.320262-.5564671.155949-.9694643-.466259-1.1725743-.441274-.1438869-.930719-.223129-1.400684-.2316788-1.631485-.0298201-3.263922-.0251281-4.895936-.0158484-1.212126.0068815-2.66744-.3241627-3.571162.160778-1.01891.5469789-1.541599 1.839876-2.279208 2.8087148-.017469.0226257-.025197.0512988-.086074.18038zm138.308124-7.3150864c-1.023924 1.3756965-1.947576 2.6700772-2.950816 3.9113942-.163479.2021428-.679851.2350861-1.033689.2365456-3.779551.0159504-7.559208.0062551-11.338865.0137611-.666096.0013553-1.334188.0284606-1.997345.0822541-1.094376.0883006-2.065067.4837247-2.68654 1.3054313-2.381631 3.1505703-4.716854 6.3300181-7.224795 9.7077514h1.182153c3.97012 0 7.940345.0118846 11.910465-.0119889.633443-.0038573 1.042824.1387581 1.392041.6475031.903913 1.3159607 1.876389 2.5934528 2.886874 3.9757171-.30932.0306498-.538002.0731843-.766893.0733928-7.5275.0032318-15.055105.017723-22.582395-.0166802-.932577-.0043785-1.910302-.156585-2.785551-.4442136-1.676581-.5507582-2.192113-1.7883221-1.495148-3.2672272.173034-.3673806.395101-.7218341.639113-1.0553331 2.69746-3.6902778 5.39471-7.3810769 8.112329-11.0591574 1.239166-1.676982 2.722974-3.1327433 4.936611-3.7410481.839865-.2307075 1.741573-.3838522 2.616193-.387918 6.860248-.0325264 13.720916-.0205375 20.581374-.0202247.14563 0 .291785.0234564.604884.0500405zm-94.480519 6.2427707c-1.032283 1.6741044-1.933657 3.1621835-2.871639 4.6242016-.116565.1815578-.427299.3162059-.648334.3169505-5.889813.0170016-11.77984.0132786-17.895612.0132786.708276-1.1425855 1.438709-2.0928166 1.928519-3.1659064.687511-1.5069421 1.696566-1.8637287 3.229683-1.8318351 5.336422.1118138 10.675949.0433108 16.257383.0433108z" fill="url(#a)" transform="translate(-623 -80)"/></svg>