<?xml version="1.0" encoding="UTF-8"?>
<svg width="165px" height="17px" viewBox="0 0 165 17" version="1.1" xmlns="http://www.w3.org/2000/svg" xmlns:xlink="http://www.w3.org/1999/xlink">
    <title>Combined Shape</title>
    <g id="Website" stroke="none" stroke-width="1" fill="none" fill-rule="evenodd">
        <g id="Desktop" transform="translate(-75.000000, -73.000000)" fill="#FFFFFF" fill-rule="nonzero">
            <path d="M105.914373,73.0206295 C107.030035,73.0254159 108.17904,73.1425053 109.251669,73.4097459 C111.012562,73.8485876 111.464322,74.9901435 110.511279,76.3929126 C109.707163,77.5767483 108.857435,78.7392225 107.954716,79.8625191 C107.136196,80.8807809 105.858003,81.2650223 104.595726,81.6297635 C104.315743,81.7106891 104.023046,81.7553621 103.714079,81.821574 C104.192512,82.120192 104.693528,82.3703256 105.108657,82.7077667 C105.660797,83.1564471 105.889656,83.7707015 105.446165,84.3551738 C104.503347,85.5973327 103.579555,86.8704259 102.468872,87.9829088 C101.13102,89.3227456 99.3140231,89.9613751 97.3375191,89.9724548 C89.9693288,90.0137596 82.600694,89.9958549 75.2323259,89.9976277 C75.2140101,89.9975922 75.1956944,89.9922527 75.1713013,89.9823693 L75.073813,89.9398477 C75.0525005,89.9307422 75.0281494,89.9206908 75,89.9097884 C77.0767074,87.0742023 79.1158941,84.2897597 81.1551698,81.5054945 L82.7575562,79.3054356 C83.2927372,78.5727844 83.8320302,77.8427479 84.3846156,77.1210655 C84.7011408,76.7076626 84.688871,76.4315583 84.3748353,76.0309191 C83.6324238,75.0839214 82.9507388,74.0978349 82.1543579,73.0035225 L83.0020408,73.0035225 L83.0020408,73.0035225 C90.6395442,73.0036112 98.2771365,72.9883656 105.914373,73.0206295 Z M136.82181,73.0207444 C137.965551,73.0256188 139.142928,73.1383511 140.243065,73.4082173 C142.008908,73.8415099 142.465229,74.9870897 141.514055,76.3873807 C140.709976,77.5713357 139.858288,78.7328682 138.956057,79.8570006 C138.137917,80.8765542 136.859363,81.2610139 135.596648,81.6275711 C135.302459,81.7130952 134.996169,81.7647641 134.722091,81.826182 C135.208668,82.1360185 135.729148,82.3984401 136.153613,82.7551598 C136.704705,83.218408 136.846193,83.8340929 136.414164,84.4173407 C135.605368,85.5096564 134.814192,86.625901 133.873162,87.6210825 C132.417347,89.1606936 130.477625,89.9625818 128.251901,89.9747236 C124.578104,89.9947087 120.90424,89.9997826 117.230354,89.9999931 L106.208673,89.9960824 L106.208673,89.9960824 C106.161688,89.9960824 106.114525,89.9663041 106,89.9276632 C106.152967,89.6965265 106.289294,89.4699984 106.446088,89.255878 C109.41111,85.2092142 112.370614,81.1590053 115.357171,77.1252809 C115.662572,76.7129041 115.674585,76.4402905 115.356192,76.03589 C114.611288,75.0891869 113.929653,74.1016272 113.129934,73.0037282 L114.051654,73.0037282 L114.051654,73.0037282 C121.641736,73.0037282 129.231995,72.98813 136.82181,73.0207444 Z M193.322398,73 C197.500518,73.0143285 201.678818,72.9868833 205.856666,73.0175157 C206.858909,73.024864 207.884633,73.0988777 208.856171,73.305691 C211.027727,73.7679224 211.58773,75.0858263 210.361161,76.7544984 C207.918227,80.0774116 205.446215,83.3829724 202.986123,86.6957044 C202.27684,87.6507996 201.576589,88.6114724 200.848522,89.5551468 C200.710802,89.7336296 200.463086,89.9642583 200.263414,89.9664716 C197.625143,89.9938284 194.986331,89.9846209 192.223073,89.9846209 C192.440717,89.6699743 192.585662,89.4468708 192.745056,89.2323551 C195.372761,85.6971394 198.002632,82.1630747 200.631421,78.6283902 C200.767335,78.4456579 200.912009,78.266821 201.031487,78.075678 C201.535859,77.2687872 201.265295,76.681193 200.240566,76.6510032 C197.758438,76.5779633 195.272699,76.5823015 192.789217,76.6087729 C192.534186,76.6115174 192.220906,76.9358142 192.041192,77.1749421 C188.995811,81.2235613 185.957384,85.2766071 182.948036,89.3467399 C182.58897,89.832521 182.209403,90.0087019 181.565233,89.9996716 C179.140813,89.9657634 176.715309,89.986126 174.12707,89.986126 C174.344081,89.6738697 174.486588,89.4559897 174.642911,89.2460777 C177.273686,85.7127212 179.9069,82.1806928 182.536772,78.646628 C182.732741,78.3833306 182.92862,78.1164918 183.085034,77.833717 C183.379078,77.3026954 183.14816,76.9208521 182.567025,76.7337816 C182.241102,76.6288699 181.872734,76.591686 181.52315,76.5895612 C179.311316,76.5761041 177.098849,76.5593714 174.887828,76.6041691 C174.567685,76.6108091 174.148383,76.8776479 173.955935,77.1328889 C170.878134,81.2207282 167.821103,85.3212278 164.787191,89.435273 C164.475808,89.8573988 164.152413,90.0025932 163.602164,89.9970156 C161.124552,89.9719607 158.646398,89.9860375 156,89.9860375 C157.283283,88.2612354 158.45964,86.678706 159.637624,85.0969735 C161.618539,82.4368191 163.588979,79.7702903 165.594007,77.1248324 C165.903945,76.7158979 165.923,76.4426847 165.597709,76.0364063 C164.840654,75.0911383 164.149343,74.1037285 163.336205,73.0045014 L164.101931,73.0045014 C170.710521,73.0045014 177.319021,73.0029078 183.927612,73.0059179 C185.450302,73.0064491 186.861823,73.2727567 187.887456,74.4706982 C189.451869,73.1899782 191.34663,72.9934347 193.322398,73 Z M239.487824,73.0020508 C239.611134,73.0020508 239.734888,73.0219888 240,73.0445852 C239.133007,74.2139272 238.350918,75.3141509 237.50144,76.3692703 C237.363016,76.5410916 236.925786,76.5690935 236.626179,76.570334 C233.425899,76.5838919 230.225529,76.5756508 227.02516,76.582031 C226.461153,76.583183 225.895456,76.6062225 225.333938,76.651947 C224.407291,76.7270025 223.585372,77.063113 223.059149,77.7615636 C221.042538,80.4395483 219.065222,83.142079 216.941659,86.0131522 L217.94263,86.0131522 L217.94263,86.0131522 C221.304271,86.0131522 224.666002,86.0232541 228.027643,86.0029617 C228.564001,85.999683 228.910638,86.1209061 229.206333,86.5533393 C229.971708,87.6719059 230.795138,88.7577742 231.650751,89.9326989 C231.388839,89.9587512 231.195206,89.9949055 231.001395,89.9950827 C224.627595,89.9978297 218.253706,90.010147 211.880083,89.9809046 C211.090437,89.9771828 210.262562,89.8478073 209.521458,89.603323 C208.101837,89.1351786 207.665318,88.0832492 208.255463,86.8261799 C208.401977,86.5139064 208.59001,86.2126209 208.796623,85.9291467 C211.080657,82.7924106 213.364514,79.6552314 215.665619,76.528863 C216.714865,75.1034283 217.971257,73.8660311 219.845622,73.3489721 C220.556766,73.1528707 221.320274,73.0226977 222.060845,73.0192418 C227.86966,72.9915944 233.678831,73.0017849 239.487824,73.0020508 Z M88.9437491,83.0109237 C88.6970704,83.0126371 88.3514593,83.0992514 88.2223443,83.2494343 C87.4862207,84.1058967 86.8019853,84.9936294 86,85.995734 C89.0652253,85.995734 91.9327724,86.0082421 94.7999467,85.9904224 C96.257941,85.9815982 97.1827067,85.2813157 97.8192459,84.2413441 C98.1870282,83.6406124 97.9973613,83.2358125 97.2154047,83.0795469 C96.9440394,83.0252309 96.6570239,83.0067257 96.3769951,83.0060404 C93.8992154,82.9997863 91.4214357,82.9945603 88.9437491,83.0109237 Z M119.955825,83.0134866 C119.689075,83.0157324 119.321581,83.1266429 119.176301,83.2948225 C118.448035,84.138053 117.778217,85.0170442 117,85.9938163 C120.119498,85.9938163 123.072056,86.0123014 126.02396,85.9853512 C127.35818,85.9731718 128.166462,85.2676293 128.769522,84.3332692 C129.223661,83.629627 129.013304,83.1992875 128.079443,83.0596129 C127.830433,83.0222972 127.574139,83.0057989 127.321113,83.005367 C124.866017,83.0007025 122.410735,82.9930148 119.955825,83.0134866 Z M146.335518,78.0015305 C150.82083,78.0909816 155.308752,78.0361791 160,78.0361791 C159.132357,79.3754627 158.374743,80.5659259 157.586361,81.7355404 C157.488387,81.8807866 157.227212,81.9885051 157.04143,81.9891008 C152.090987,82.0027021 147.140364,81.9997237 142,81.9997237 C142.595313,81.0856553 143.209249,80.3254704 143.620938,79.4669986 C144.198797,78.2614448 145.046918,77.9760156 146.335518,78.0015305 Z M124.02333,76.243166 C123.151725,76.745612 122.704602,77.9332466 122.07363,78.8232063 C122.058687,78.8439899 122.052075,78.8703285 122,78.9889004 C124.936143,78.9889004 127.800286,79.0233802 130.662799,78.9707986 C131.707475,78.9515474 132.393602,78.2758408 132.863366,77.3999604 C133.137328,76.8887986 132.99677,76.509426 132.464515,76.3228525 C132.087036,76.1906802 131.668351,76.1178897 131.266329,76.110036 C129.87071,76.0826438 128.474277,76.0869538 127.078205,76.0954779 C126.041317,76.1017992 124.7964,75.7977073 124.02333,76.243166 Z M93.4957886,76.0149076 C93.2643897,76.0169678 92.9490272,76.1517674 92.8186387,76.3293419 C92.2113982,77.1556027 91.6556602,78.0186538 91,78.9895249 C93.9497909,78.9895249 96.7422632,79.0276887 99.5318339,78.9583267 C100.110331,78.9440031 100.791924,78.6521334 101.219087,78.2656883 C101.636276,77.888269 102.066703,77.1841519 101.991353,76.699305 C101.882001,75.9960709 101.02024,76.0277596 100.402481,76.0203035 C98.1005524,75.9930296 95.7978985,75.9952861 93.4957886,76.0149076 Z" id="Combined-Shape"></path>
        </g>
    </g>
</svg>