<svg height="90" viewBox="0 0 150 90" width="150" xmlns="http://www.w3.org/2000/svg"><path d="m132.028003 44.6526441c-.531247-8.5874849-4.462262-16.1652874-10.40898-21.4933326-5.946717-5.3280453-13.909136-8.4063334-22.5031896-7.9947893l-54.535842 2.6115619c-7.9647782.3814099-15.1022799 3.8131299-20.2904297 9.1425346s-8.4269477 12.5564941-8.5943184 20.5286427c-.0042287.2014215-.0062466.4028834-.0060533.6043493.0072945 7.603304 3.0957463 14.4838472 8.0832005 19.4617407s11.8739108 8.0531374 19.4772148 8.0458429l59.8065327-.0573778c.589136-.0005652 1.178119-.0190487 1.766132-.0554249 8.008057-.4954014 15.057191-4.1898097 19.98046-9.762382 4.92327-5.5725722 7.720674-13.0233084 7.225273-21.0313655z" fill="none" stroke="#000" stroke-width="4"/></svg>