<svg height="90" viewBox="0 0 150 90" width="150" xmlns="http://www.w3.org/2000/svg"><path d="m16.7364863 36.9922779c-2.2511162 3.9394533-3.4351946 8.3981769-3.4351946 12.9354467 0 14.399287 11.6729287 26.0722298 26.0722263 26.0722754h46.0718547 12.3419671 5.2126602 11.588979c7.485556.0000007 14.60674-3.2313659 19.536013-8.8648214 9.440762-10.7894423 8.347441-27.1892632-2.442001-36.6300252-3.353947-2.9347037-12.076627-6.9231408-22.969784-10.7428191-9.1972684-3.2250164-18.4755205-5.7623343-20.713207-5.7623343-4.75 0-4.75 0-11.5 0s-6.75 0-11.5 0c-2.250884 0-7.9846394 1.6791002-16.3691636 4.6682874-.8104914.2889503-1.6468171.5903336-2.5163607.9065789-1.7911251.6514163-12.8378514 4.774444-14.4820202 5.3225003-5.9339592 1.9779864-11.7341013 6.5616424-14.8959692 12.0949113z" fill="none" stroke="#000" stroke-width="4"/></svg>