<?xml version="1.0" encoding="UTF-8"?>
<svg width="150px" height="90px" viewBox="0 0 150 90" version="1.1" xmlns="http://www.w3.org/2000/svg" xmlns:xlink="http://www.w3.org/1999/xlink">
    <title>Icon</title>
    <g id="Icon" stroke="none" stroke-width="1" fill="none" fill-rule="evenodd">
        <path d="M60.6067119,18.2860839 C69.1804616,14.9768664 78.6789134,14.9768664 87.2526631,18.2860839 L87.2526631,18.2860839 L119.301756,30.6561 C125.179373,33.0523206 129.531558,37.6024045 131.817489,43.0237348 C134.105539,48.4500876 134.323504,54.7493019 131.929059,60.6351923 C130.27298,64.7060731 127.529701,68.1274391 124.104299,70.6061744 C120.678885,73.0849183 116.571345,74.6210253 112.186776,74.9213756 C111.423686,74.973642 110.694766,75 110,75 C100.821828,75 89.20022,75.2367565 77.2639154,75.4801115 C75.6194643,75.5136382 73.9690319,75.547287 72.3185723,75.5804457 L72.3185723,75.5804457 L69.6836205,75.6328926 C59.6003159,75.8314288 49.6131781,76 41,76 C39.5515488,76 38.0272933,75.9050372 36.4271604,75.7165786 C29.8821996,74.9457068 24.2692955,71.5949523 20.4853442,66.8006745 C16.7013976,62.0064027 14.7463993,55.7686109 15.5172434,49.2236549 C16.4447926,41.3481744 21.2210639,34.4596482 28.2431516,30.8234341 L28.2431516,30.8234341 Z" id="daytona" stroke="#000000" stroke-width="4"></path>
    </g>
</svg>