<?xml version="1.0" encoding="UTF-8"?>
<svg width="150px" height="90px" viewBox="0 0 150 90" version="1.1" xmlns="http://www.w3.org/2000/svg" xmlns:xlink="http://www.w3.org/1999/xlink">
    <!-- Generator: Sketch 53.2 (72643) - https://sketchapp.com -->
    <title>Icon</title>
    <desc>Created with Sketch.</desc>
    <g id="Icon" stroke="none" stroke-width="1" fill="none" fill-rule="evenodd">
        <path d="M37.9879518,14.6410612 C33.8389447,14.6410612 28.2520195,16.4436711 23.9353254,19.7283531 C18.2737625,24.0363799 15,30.4775239 15,39.2699579 C15,50.9376178 25.4522487,62.9987252 46.6905878,75.2603923 C50.9178952,77.7009709 55.7888875,78.7945384 60.6537709,78.3952123 C85.3979196,76.364128 102.182944,74.0143232 110.903826,71.3811429 C124.462902,67.2871199 133,55.7856563 133,42.2287242 C133,29.2169766 119.206778,14.6410612 107.072289,14.6410612 C97.9686275,14.6410612 97.9686275,14.6410612 83.5034304,14.6410612 C78.6660828,14.6410612 78.6660828,14.6410612 73.7222995,14.6410612 C61.8128123,14.6410612 61.8128123,14.6410612 51.3912752,14.6410612 C42.4576883,14.6410612 42.4576883,14.6410612 37.9879518,14.6410612 Z" id="Rectangle" stroke="#000000" stroke-width="4"></path>
    </g>
</svg>