<svg height="90" viewBox="0 0 150 90" width="150" xmlns="http://www.w3.org/2000/svg"><path d="m37.9879518 14.6410612c-4.1490071 0-9.7359323 1.8026099-14.0526264 5.0872919-5.6615629 4.3080268-8.9353254 10.7491708-8.9353254 19.5416048 0 11.6676599 10.4522487 23.7287673 31.6905878 35.9904344 4.2273074 2.4405786 9.0982997 3.5341461 13.9631831 3.13482 24.7441487-2.0310843 41.5291731-4.3808891 50.2500551-7.0140694 13.559076-4.094023 22.096174-15.5954866 22.096174-29.1524187 0-13.0117476-13.793222-27.587663-25.927711-27.587663-9.1036615 0-9.1036615 0-23.5688586 0-4.8373476 0-4.8373476 0-9.7811309 0-11.9094872 0-11.9094872 0-22.3310243 0-8.9335869 0-8.9335869 0-13.4033234 0z" fill="none" stroke="#000" stroke-width="4" transform="matrix(-1 0 0 -1 148 93.094442)"/></svg>