<svg height="90" viewBox="0 0 150 90" width="150" xmlns="http://www.w3.org/2000/svg"><path d="m39 22h4c3.3333333.6666667 5 6 5 16s-5 11-16 15c-4.4823561 1.6299477 3 15 12 14h36c4.0636746 0 .9103728-10.1344408-1-13-2-3-24.5282202-4.0564405-28-11l-.1032397-.2315247c-1.2500751-3.0397679-6.7703399-23.3316855.1032397-26.7684753l.8142291-.4005487c2.4847987-1.1983539 7.7147622-3.4816461 12.7953035-3.5950617l23.3904674-.0043896c4.95 0 36.3627 9.801 44.752851 16.789113l.247149.210887c11.620716 10.1681261 12.798272 27.8314723 2.630146 39.4521878-5.30905 6.0674853-12.978885 9.5478122-21.041167 9.5478122h-11.588979c-4 0-6-3-8-3h-5c-2.6638255 0 0 3-6 3h-45c-15.463973 0-28-12.536027-28-28s12.536027-28 28-28zm0 4c-13.254834 0-24 10.745166-24 24s10.745166 24 24 24l45.2146449-.0015535c.2059725-.0030463.3860237-.0103885.5410147-.0203853l.2768235-.0230468c.0797897-.1581818.1635816-.308267.2670406-.4744822.3007157-.4831241.6712544-.9211493 1.1448216-1.3045545 1.0179438-.8241383 2.227259-1.1759777 3.5556547-1.1759777h5c1.2278578 0 2.2836277.3410949 3.4028009.9335983.3292407.1743039.6383323.355799 1.0516594.6105897l.7624527.4709052.325418.1928606c.907653.5230243 1.547979.7527095 2.261116.7873583l.196553.0046879h11.588979c6.908831 0 13.481363-2.9824051 18.03086-8.1818306 8.713398-9.958169 7.704312-25.0944647-2.253857-33.8078626-2.931043-2.5646625-10.778737-6.2174579-20.650949-9.7697279l-1.663618-.5909104-1.735025-.5997482c-8.3791366-2.8556069-16.5190742-5.0499203-18.31639-5.0499203h-23c-3.803449 0-7.9069666 1.4256193-12.2111456 3.5777088-.9198902.459945-1.5190466 3.9430493-.9388557 9.2654011l.0865076.7370644c.5516888 4.3924443 1.9611918 10.0059304 2.5611772 11.4531494l.0800253.1778219c.6708129 1.3416259 4.41995 3.0169374 10.7901492 4.6060182l.7513806.1831326 7.5402324 1.7324176c.3192997.0745784.6122979.1436217.8695422.205098l.7931825.1948535.7473086.1969632c3.3677619.9084428 5.0862967 1.6929703 6.2586969 3.4515705 1.3546632 2.0319948 2.7683995 5.8518639 3.3491228 9.0865699.3687839 2.0541751.42513 3.8760628.0325054 5.4640354-.6716813 2.7166191-2.7353754 4.6681955-5.7098294 4.6681955h-35.7990278c-5.6329888.5190205-10.9826281-2.7308171-14.5155966-7.6941559-1.5552748-2.1849489-2.6133372-4.5528635-2.9259613-6.7186109-.4521306-3.1321986.6587949-6.0389512 3.6223554-7.2494869l.251258-.09692 4.8762308-1.7582725 1.1512387-.4312853.9846535-.3861952.5696735-.2336294c4.7898476-2.0014724 5.7851758-3.4491493 5.7851758-8.4314439l-.0016673-.5291227c-.0277589-4.3661175-.4014097-7.65028-1.0662526-9.7777773-.2253671-.7211747-.4646519-1.2457099-.6848671-1.5776447l-.0816223-.1154553z"/></svg>